<svg width="59" height="59" version="1.0" viewBox="0 0 59 59" xmlns="http://www.w3.org/2000/svg" xmlns:xlink="http://www.w3.org/1999/xlink">
 <style type="text/css">.st0{clip-path:url(#SVGID_2_);}
	.st1{fill:#495BFF;}</style>
 <g transform="translate(-12,-30.125)">
  <defs>
   <rect id="SVGID_1_" x="22" y="40" width="146" height="39"/>
  </defs>
  <clipPath id="SVGID_2_">
   <use width="100%" height="100%" xlink:href="#SVGID_1_"/>
  </clipPath>
  <g class="st0" clip-path="url(#SVGID_2_)">
   <g transform="translate(2.1 .0625)" fill="#495bff">
    <path class="st1" d="m44.6 76-15.9-9.2c-0.6-0.3-0.9-0.9-0.9-1.6v-18.5c0-0.3-0.3-0.5-0.5-0.3l-3.3 1.9c-1.2 0.7-2 2-2 3.5v15.5c0 1.4 0.8 2.7 2 3.5l13.4 7.8c1.2 0.7 2.8 0.7 4 0l3.3-1.9c0.2-0.3 0.2-0.6-0.1-0.7z"/>
    <path class="st1" d="m31.6 65.1 6.9 4c0.6 0.3 1.3 0.3 1.8 0l6.9-4c0.6-0.3 0.9-0.9 0.9-1.6v-8c0-0.6-0.3-1.2-0.9-1.6l-6.9-4c-0.6-0.3-1.3-0.3-1.8 0l-1.7 1c-0.1 0.1-0.3 0-0.3-0.2v-9.1c0-0.3-0.3-0.5-0.5-0.3l-4.4 2.5c-0.6 0.3-0.9 0.9-0.9 1.6v18c0 0.7 0.3 1.3 0.9 1.7zm4-7.2c0-0.4 0.2-0.7 0.5-0.9l2.7-1.6c0.3-0.2 0.8-0.2 1.1 0l2.7 1.6c0.3 0.2 0.5 0.6 0.5 0.9v3.1c0 0.4-0.2 0.7-0.5 0.9l-2.7 1.6c-0.3 0.2-0.8 0.2-1.1 0l-2.7-1.5c-0.3-0.2-0.5-0.6-0.5-0.9z"/>
    <path class="st1" d="m54.8 48.3-13.4-7.8c-0.6-0.3-1.2-0.5-1.8-0.5-0.1 0-0.2 0.1-0.2 0.2v5.7c0 0.1 0.1 0.2 0.2 0.3l10.5 6.1c0.6 0.3 0.9 0.9 0.9 1.6v11.3c0 0.6-0.3 1.2-0.9 1.6l-7.2 4.2c-0.2 0.1-0.2 0.5 0 0.6l4.9 2.8c0.2 0.1 0.5 0.1 0.7 0l6.3-3.7c1.2-0.7 2-2 2-3.5v-15.5c-0.1-1.4-0.8-2.7-2-3.4z"/>
   </g>
  </g>
 </g>
</svg>
