<svg width="78" height="78" version="1.1" viewBox="0 0 78 78" xmlns="http://www.w3.org/2000/svg" xmlns:xlink="http://www.w3.org/1999/xlink">
 <title>Logotypes/bat/logo-dark@1x</title>
 <desc>Created with Sketch.</desc>
 <defs>
  <linearGradient id="linearGradient-1" x1="2.6668e-5" x2="53.336" y1="27.044" y2="27.044" gradientTransform="scale(.91491 1.093)" gradientUnits="userSpaceOnUse">
   <stop stop-color="#f50" offset="0"/>
   <stop stop-color="#f50" offset=".40988"/>
   <stop stop-color="#FF2000" offset=".58198"/>
   <stop stop-color="#FF2000" offset="1"/>
  </linearGradient>
  <linearGradient id="linearGradient-2" x1="2.5555" x2="22.739" y1="10.459" y2="10.459" gradientTransform="scale(1.9636 .50927)" gradientUnits="userSpaceOnUse">
   <stop stop-color="#FF452A" offset="0"/>
   <stop stop-color="#FF2000" offset="1"/>
  </linearGradient>
  <path id="path-3" d="m38.184 5.7814-5.0018-5.7814h-17.567l-5.0018 5.7814s-4.3918-1.2429-6.4657 0.87003c0 0 5.8557-0.53855 7.8686 2.7965 0 0 5.4288 1.0565 6.1607 1.0565 0.73197 0 2.3179-0.62145 3.7818-1.1186s2.4399-0.50076 2.4399-0.50076 0.97596 0.0036 2.4399 0.50076c1.4639 0.49716 3.0499 1.1186 3.7818 1.1186 0.73197 0 6.1607-1.0565 6.1607-1.0565 2.0129-3.3351 7.8686-2.7965 7.8686-2.7965-2.0739-2.1129-6.4657-0.87003-6.4657-0.87003"/>
 </defs>
 <g id="Branding" transform="translate(9.3996 9.704)" fill="none" fill-rule="evenodd">
  <g id="logo_brave" transform="translate(-46,-42)">
   <g id="Logo/Logotypes/brave/logo-dark" transform="translate(46,42)">
    <g id="Logotypes/brave/logo-dark" transform="translate(-3.9103)">
     <g id="Build-Icons/Release" transform="translate(4.6011 .148)">
      <g id="Logo" transform="translate(4.5107)">
       <path id="Head" d="m47.09 13.985 1.3419-3.3558s-1.7079-1.8644-3.7818-3.9773-6.4657-0.87003-6.4657-0.87003l-5.0018-5.7814h-17.567l-5.0018 5.7814s-4.3918-1.2429-6.4657 0.87003c-2.0739 2.1129-3.7818 3.9773-3.7818 3.9773l1.3419 3.3558-1.7079 4.9716s5.0231 19.384 5.6117 21.751c1.1589 4.6609 1.9519 6.4631 5.2458 8.8246 3.2938 2.3615 9.2716 6.4631 10.248 7.0845s2.1959 1.68 3.2938 1.68 2.3179-1.0586 3.2938-1.68 6.9537-4.723 10.248-7.0845c3.2938-2.3615 4.0868-4.1637 5.2458-8.8246 0.5885-2.3671 5.6117-21.751 5.6117-21.751z" fill="url(#linearGradient-1)"/>
       <path id="Face" d="m24.399 36.279c0.33439 0 2.4769 0.7706 4.1961 1.6769 1.7191 0.90645 2.9651 1.5474 3.3634 1.8013 0.39819 0.25405 0.1553 0.73294-0.20739 0.9942-0.36281 0.26126-5.2378 4.1073-5.7109 4.5324-0.47322 0.4252-1.1685 1.1273-1.6412 1.1273-0.47273 0-1.1681-0.70211-1.6412-1.1273-0.47322-0.42507-5.3481-4.2711-5.7109-4.5324-0.36281-0.26126-0.60558-0.74015-0.20739-0.9942 0.39831-0.25392 1.6442-0.89489 3.3635-1.8013 1.719-0.90632 3.8616-1.6769 4.196-1.6769zm0.02616-27.393c0.16419 0.00464 1.0892 0.050432 2.4138 0.50024 1.4639 0.49716 3.0499 1.1186 3.7818 1.1186 0.73197 0 6.1607-1.0565 6.1607-1.0565s6.4335 7.9235 6.4335 9.6169c0 1.6935-0.80931 2.1404-1.623 3.0207s-4.3675 4.7251-4.8239 5.2188c-0.45638 0.4938-1.4065 1.2424-0.84762 2.5898s1.3833 3.062 0.46651 4.8011c-0.91691 1.7391-2.4876 2.8998-3.494 2.7079-1.0065-0.19203-3.3701-1.4505-4.2393-2.0253s-3.6241-2.8896-3.6241-3.7753c0-0.88557 2.8477-2.4757 3.3738-2.837 0.52628-0.36119 2.9259-1.7596 2.9751-2.3084 0.04904-0.54899 0.03038-0.70994-0.6778-2.0662-0.70818-1.3564-1.9835-3.1663-1.7712-4.3705 0.21227-1.2041 2.2691-1.8303 3.7369-2.3951 1.4676-0.56465 4.2936-1.6312 4.6465-1.797 0.35317-0.16593 0.26192-0.3239-0.8076-0.42718-1.0693-0.10328-4.104-0.51369-5.4722-0.12516-1.3682 0.38853-3.7056 0.97965-3.8949 1.2931-0.18934 0.31346-0.35634 0.32402-0.16189 1.4053 0.19434 1.0813 1.1954 6.2699 1.2925 7.1915 0.09723 0.92161 0.2873 1.5309-0.68805 1.7581-0.97547 0.2272-2.6174 0.6217-3.1816 0.6217s-2.2063-0.3945-3.1816-0.6217c-0.97547-0.2272-0.7854-0.83647-0.68817-1.7581 0.09723-0.92161 1.0982-6.1102 1.2927-7.1915 0.19434-1.0813 0.02733-1.0919-0.16189-1.4053-0.18934-0.31346-2.5269-0.90458-3.895-1.2931-1.3682-0.38853-4.4028 0.02188-5.4722 0.12516-1.0694 0.10328-1.1607 0.26126-0.8076 0.42718 0.35305 0.1658 3.1791 1.2323 4.6466 1.797 1.4677 0.56477 3.5247 1.1909 3.7369 2.3951 0.21227 1.2042-1.0632 3.0142-1.7712 4.3705-0.70818 1.3563-0.72696 1.5172-0.6778 2.0662 0.04904 0.54886 2.4488 1.9473 2.975 2.3084 0.52616 0.36131 3.3738 1.9515 3.3738 2.837 0 0.88569-2.7548 3.2005-3.624 3.7753s-3.2329 1.8333-4.2393 2.0253c-1.0065 0.1919-2.5771-0.96884-3.494-2.7079-0.91679-1.7391-0.09235-3.4536 0.46638-4.8011 0.55886-1.3474-0.39112-2.096-0.84762-2.5898-0.45626-0.49368-4.0102-4.3385-4.8239-5.2188s-1.6229-1.3273-1.6229-3.0207c0-1.6935 6.4335-9.6169 6.4335-9.6169s5.4288 1.0565 6.1607 1.0565c0.73197 0 2.3179-0.62145 3.7818-1.1186 1.3245-0.44981 2.2496-0.4956 2.4138-0.50024z" fill="#fff"/>
       <mask fill="white">
        <use width="100%" height="100%" xlink:href="#path-3"/>
       </mask>
       <use id="Top-Head" width="100%" height="100%" fill="url(#linearGradient-2)" xlink:href="#path-3"/>
      </g>
     </g>
    </g>
   </g>
  </g>
 </g>
</svg>
