<svg width="2780.3" height="2780.6" version="1.1" viewBox="0 0 2780.3 2780.6" xmlns="http://www.w3.org/2000/svg">
 <style type="text/css">.st0{fill:#08C284;}
	.st1{fill-rule:evenodd;clip-rule:evenodd;fill:#08C284;}</style>
 <g transform="translate(140.34 139.23)">
  <g fill="#08c284">
   <path class="st0" d="m1014 1188c-34 34-34 90 0 124l175 175c34 34 90 34 124 0l175-175c34-34 34-90 0-124l-175-175c-34-34-90-34-124 0z"/>
   <path class="st1" d="m1910 325c35 54 65 112 90 172-474-535-1281-661-1903-262-98 62-127 194-64 292 62 98 194 127 292 64 54-35 112-65 172-90-535 474-661 1281-262 1903 62 98 194 127 292 64 98-62 127-194 64-292-35-54-65-112-90-172 474 535 1279 661 1899 266 60-37 100-104 100-180 0-117-95-210-211-210-42 0-81 13-116 35-54 34-110 64-170 87 536-474 661-1281 263-1903-62-98-194-127-292-64-98 64-127 193-65 291zm-1003 393c-294 188-379 580-191 875s580 380 875 192 380-580 192-875c-188-296-580-381-876-192z" clip-rule="evenodd" fill-rule="evenodd"/>
  </g>
 </g>
</svg>
