<svg width="2760" height="2760" version="1.1" viewBox="0 0 2760 2760" xmlns="http://www.w3.org/2000/svg">
 <style type="text/css">.st0{fill:none;}
	.st1{fill-rule:evenodd;clip-rule:evenodd;fill:#23AF91;}</style>
 <g transform="translate(130 130.03)">
  <rect class="st0" width="2500" height="2500" fill="none"/>
  <path id="形状" class="st1" d="m830.3 1250.3 740.5 740.6 467.4-467.4c83.6-75.2 211.4-71.9 290.9 7.6s82.9 207.4 7.6 290.9l-616.8 616.9c-82.9 81.5-215.7 81.5-298.6 0l-889.8-890.1v529c0 116.8-94.6 211.4-211.4 211.4s-211.4-94.6-211.4-211.4v-1655.8c0-116.7 94.6-211.4 211.4-211.4s211.4 94.7 211.4 211.4v529l889.7-889.9c82.8-81.5 215.8-81.5 298.6 0l617.2 616.8c75.2 83.6 71.9 211.4-7.6 290.9s-207.4 82.9-290.9 7.6l-467.4-467.4zm740.8-211.7c-85.6 0-162.8 51.5-195.6 130.6s-14.7 170.1 45.8 230.7 151.6 78.7 230.7 46c79.1-32.8 130.7-109.9 130.7-195.6 0-56.1-22.2-109.9-61.9-149.7-39.6-39.7-93.5-62-149.6-62z" clip-rule="evenodd" fill="#23af91" fill-rule="evenodd"/>
 </g>
</svg>
