<svg width="135.72" height="135.72" version="1.1" viewBox="0 0 135.72 135.72" xmlns="http://www.w3.org/2000/svg">
 <g id="watermark_1_" transform="translate(-237 -400.82)">
  <g id="watermark" opacity=".61">
   <polygon points="414.68 924.53 421.11 924.53 409.01 952.49 402.62 952.49 390.55 924.53 397.54 924.53 406.05 944.5" fill="#fff"/>
   <path d="m442.32 943.18h-16.26c0.599 2.677 2.876 4.315 6.153 4.315 2.277 0 3.915-0.679 5.393-2.077l3.316 3.595c-1.997 2.278-4.994 3.476-8.868 3.476-7.431 0-12.265-4.674-12.265-11.067 0-6.432 4.914-11.066 11.466-11.066 6.312 0 11.186 4.235 11.186 11.146-1e-3 0.48-0.081 1.159-0.121 1.678m-16.34-3.635h10.587c-0.44-2.717-2.478-4.475-5.274-4.475-2.836 0-4.874 1.718-5.313 4.475" fill="#fff"/>
   <path d="m445 941.43c0-6.471 4.994-11.066 11.985-11.066 4.514 0 8.07 1.958 9.628 5.473l-4.834 2.597c-1.159-2.038-2.877-2.956-4.834-2.956-3.156 0-5.633 2.198-5.633 5.952 0 3.756 2.477 5.953 5.633 5.953 1.958 0 3.675-0.879 4.834-2.956l4.834 2.637c-1.558 3.436-5.114 5.433-9.628 5.433-6.991-1e-3 -11.985-4.595-11.985-11.067" fill="#fff"/>
   <path d="m484.39 951.14c-1.279 0.919-3.157 1.358-5.074 1.358-5.073 0-8.03-2.597-8.03-7.711v-8.829h-3.316v-4.794h3.316v-5.233h6.232v5.233h5.353v4.794h-5.353v8.749c0 1.837 0.998 2.836 2.677 2.836 0.918 0 1.837-0.279 2.517-0.799z" fill="#fff"/>
   <path d="m527.16 930.68v5.753c-0.519-0.04-0.918-0.08-1.398-0.08-3.435 0-5.713 1.877-5.713 5.993v10.147h-6.232v-21.493h5.953v2.836c1.517-2.077 4.074-3.156 7.39-3.156" fill="#fff"/>
   <path d="m528.95 949.26 2.197-4.874c2.357 1.718 5.873 2.916 9.229 2.916 3.836 0 5.393-1.278 5.393-2.996 0-5.233-16.26-1.638-16.26-12.025 0-4.754 3.835-8.709 11.785-8.709 3.516 0 7.112 0.839 9.708 2.477l-1.998 4.914c-2.597-1.478-5.273-2.197-7.75-2.197-3.835 0-5.313 1.438-5.313 3.196 0 5.154 16.259 1.598 16.259 11.865 0 4.675-3.875 8.67-11.865 8.67-4.434-1e-3 -8.909-1.319-11.385-3.237" fill="#fff"/>
   <path d="m577.13 943.18h-16.26c0.599 2.677 2.876 4.315 6.153 4.315 2.277 0 3.915-0.679 5.393-2.077l3.316 3.595c-1.998 2.278-4.994 3.476-8.869 3.476-7.431 0-12.265-4.674-12.265-11.067 0-6.432 4.914-11.066 11.466-11.066 6.312 0 11.187 4.235 11.187 11.146-1e-3 0.48-0.081 1.159-0.121 1.678m-16.34-3.635h10.587c-0.439-2.717-2.477-4.475-5.273-4.475-2.837 0-4.874 1.718-5.314 4.475" fill="#fff"/>
   <path d="m602.34 943.18h-16.26c0.599 2.677 2.876 4.315 6.152 4.315 2.277 0 3.915-0.679 5.393-2.077l3.316 3.595c-1.998 2.278-4.994 3.476-8.869 3.476-7.431 0-12.265-4.674-12.265-11.067 0-6.432 4.914-11.066 11.466-11.066 6.312 0 11.186 4.235 11.186 11.146 1e-3 0.48-0.079 1.159-0.119 1.678m-16.34-3.635h10.587c-0.439-2.717-2.477-4.475-5.273-4.475-2.837 0-4.874 1.718-5.314 4.475" fill="#fff"/>
   <polygon points="612.84 939.63 621.95 931 629.38 931 620.43 940.11 630.18 952.49 622.63 952.49 615.84 944.06 612.84 947.02 612.84 952.49 606.61 952.49 606.61 922.85 612.84 922.85" fill="#fff"/>
   <path d="m514.37 955.42-6.226-6.226c-0.947 1.107-2.075 2.054-3.339 2.796-0.201 0.15-0.406 0.296-0.616 0.433l6.589 6.589c0.992 0.992 2.601 0.992 3.592 0 0.992-0.991 0.992-2.6 0-3.592" fill="#fff"/>
   <path d="m499.96 929.04c0.48-0.377 1.077-0.612 1.735-0.612 0.091 0 0.181 5e-3 0.27 0.013-0.466-0.34-1.041-0.542-1.663-0.542-0.859 0-1.619 0.392-2.137 0.998-0.111 0-0.218 0.013-0.328 0.016 0.086-0.167 0.139-0.354 0.139-0.555 0-0.509-0.311-0.945-0.752-1.13 0.19 0.275 0.301 0.608 0.301 0.968 0 0.267-0.066 0.517-0.176 0.742-6.119 0.437-10.95 5.527-10.95 11.757 0 6.516 5.283 11.799 11.799 11.799 6.517 0 11.8-5.283 11.8-11.799 1e-3 -5.918-4.359-10.803-10.038-11.655m-4.355 3.074c0.947 0 1.837 0.244 2.611 0.674 0.813-0.532 1.785-0.842 2.828-0.842 1.547 0 2.934 0.68 3.883 1.756-0.948-0.826-2.186-1.328-3.541-1.328-0.977 0-1.895 0.261-2.686 0.716-0.172 0.1-0.34 0.208-0.499 0.326-0.142-0.104-0.29-0.203-0.444-0.292-0.803-0.476-1.741-0.749-2.743-0.749-0.653 0-1.279 0.117-1.86 0.331 0.736-0.378 1.568-0.592 2.451-0.592m8.248 9.671c0.25 0.664 0.394 1.38 0.394 2.131 0 3.34-2.707 6.047-6.047 6.047-3.339 0-6.047-2.707-6.047-6.047 0-0.751 0.143-1.467 0.394-2.131-1.35-0.831-2.253-2.317-2.253-4.019 0-2.607 2.114-4.72 4.72-4.72 1.23 0 2.346 0.474 3.186 1.244 0.84-0.77 1.956-1.244 3.186-1.244 2.607 0 4.72 2.113 4.72 4.72 0 1.701-0.903 3.188-2.253 4.019" fill="#fff"/>
   <path d="m503.63 937.35c0 1.082-0.879 1.961-1.961 1.961s-1.961-0.879-1.961-1.961 0.879-1.961 1.961-1.961c0.22 0 0.428 0.037 0.625 0.102-0.065 0.135-0.099 0.287-0.099 0.445 0 0.595 0.482 1.076 1.077 1.076 0.11 0 0.217-0.017 0.318-0.048 0.026 0.124 0.04 0.253 0.04 0.386" fill="#fff"/>
   <path d="m496.2 937.35c0 0.818-0.665 1.482-1.483 1.482s-1.483-0.664-1.483-1.482 0.665-1.483 1.483-1.483c0.166 0 0.324 0.027 0.473 0.077-0.049 0.102-0.075 0.217-0.075 0.337 0 0.449 0.364 0.814 0.814 0.814 0.083 0 0.164-0.013 0.241-0.036 0.02 0.093 0.03 0.191 0.03 0.291" fill="#fff"/>
   <rect x="484.56" y="939.02" width="1.34" height="1.34" fill="#fff"/>
   <rect x="510.51" y="939.02" width="1.34" height="1.34" fill="#fff"/>
   <path d="m511.33 939.57h-0.304c0-7.07-5.752-12.823-12.823-12.823-7.07 0-12.823 5.753-12.823 12.823h-0.305c0-3.506 1.365-6.803 3.845-9.282 2.479-2.48 5.776-3.845 9.282-3.845 3.507 0 6.803 1.365 9.283 3.845 2.479 2.479 3.845 5.775 3.845 9.282" fill="#fff"/>
   <rect x="497.53" y="925.93" width="1.34" height="1.34" fill="#fff"/>
   <rect x="489.01" y="926.45" width="18.397" height=".304" fill="#fff"/>
   <path d="m489.49 926.66c0 0.235-0.191 0.427-0.427 0.427-0.235 0-0.426-0.191-0.426-0.427s0.191-0.427 0.426-0.427c0.236 0 0.427 0.191 0.427 0.427" fill="#fff"/>
   <path d="m507.83 926.66c0 0.235-0.191 0.427-0.427 0.427-0.235 0-0.426-0.191-0.426-0.427s0.191-0.427 0.426-0.427c0.237 0 0.427 0.191 0.427 0.427" fill="#fff"/>
   <path d="m640.11 951.17c0 3.395-5.146 3.395-5.146 0 0-3.392 5.146-3.392 5.146 0z" fill="#fff"/>
   <path d="m307.85 936.24 3.859 13.253 4.038-13.253h4.823l-6.145 17.721h-5.073l-1.822-5.216-1.572-5.896-1.571 5.896-1.822 5.216h-5.073l-6.18-17.721h4.858l4.038 13.253 3.822-13.253z" fill="#fff"/>
   <path d="m340.45 936.24 3.859 13.253 4.038-13.253h4.823l-6.145 17.721h-5.073l-1.822-5.216-1.571-5.896-1.572 5.896-1.822 5.216h-5.073l-6.18-17.721h4.858l4.038 13.253 3.822-13.253z" fill="#fff"/>
   <path d="m373.05 936.24 3.859 13.253 4.038-13.253h4.823l-6.145 17.721h-5.073l-1.822-5.216-1.572-5.896-1.571 5.896-1.822 5.216h-5.073l-6.18-17.721h4.858l4.038 13.253 3.822-13.253z" fill="#fff"/>
   <path d="m393.12 951.41c0 3.395-5.146 3.395-5.146 0 0-3.392 5.146-3.392 5.146 0z" fill="#fff"/>
   <path d="m658.3 951.17c-2.036 2.001-4.177 2.787-6.787 2.787-5.108 0-9.361-3.072-9.361-9.323s4.253-9.326 9.361-9.326c2.502 0 4.43 0.716 6.359 2.609l-2.752 2.894c-1.036-0.931-2.321-1.393-3.534-1.393-2.929 0-5.073 2.144-5.073 5.216 0 3.357 2.286 5.143 5 5.143 1.393 0 2.787-0.393 3.857-1.463z" fill="#fff"/>
   <path d="m678.1 944.78c0 5.073-3.465 9.181-9.181 9.181s-9.146-4.107-9.146-9.181c0-5.038 3.502-9.181 9.111-9.181s9.216 4.143 9.216 9.181zm-13.969 0c0 2.679 1.609 5.181 4.788 5.181s4.788-2.502 4.788-5.181c0-2.644-1.859-5.216-4.788-5.216-3.144 0-4.788 2.572-4.788 5.216z" fill="#fff"/>
   <path d="m692.83 953.96v-9.431c0-2.324-1.216-4.43-3.61-4.43-2.356 0-3.75 2.106-3.75 4.43v9.431h-4.36v-17.649h4.038l0.323 2.144c0.928-1.786 2.964-2.429 4.643-2.429 2.109 0 4.218 0.858 5.216 3.287 1.574-2.502 3.61-3.217 5.896-3.217 5 0 7.467 3.075 7.467 8.36v9.504h-4.361v-9.504c0-2.321-0.963-4.288-3.322-4.288-2.356 0-3.822 2.036-3.822 4.36v9.431h-4.358z" fill="#fff"/>
  </g>
  <g opacity=".61">
   <path d="m708.97 859.49c-0.013-2.665-2.087-4.618-4.766-4.659-2.011-0.031-1.81 0.261-1.815-1.887-6e-3 -2.389-0.015-4.778 6e-3 -7.166 7e-3 -0.824-0.243-1.505-0.787-2.125-5.098-5.81-10.184-11.63-15.281-17.441-0.262-0.299-0.599-0.532-0.901-0.796h-40.583c-1.729 0.639-2.482 1.889-2.478 3.72 0.021 8.159 9e-3 16.318 8e-3 24.478 0 1.21-7e-3 1.281-1.197 1.201-3.258-0.221-5.477 2.147-5.436 5.426 0.096 7.568 0.028 15.137 0.031 22.706 1e-3 3.44 1.887 5.32 5.333 5.331 1.267 4e-3 1.268 4e-3 1.268 1.306 1e-3 4.831-2e-3 9.662 2e-3 14.493 2e-3 2.595 1.262 3.855 3.85 3.855 17.446 1e-3 34.891 1e-3 52.337 0 2.543 0 3.822-1.268 3.824-3.799 5e-3 -4.912 1e-3 -9.823 3e-3 -14.735 0-1.115 5e-3 -1.112 1.131-1.121 0.589-5e-3 1.177 0.017 1.761-0.127 2.169-0.535 3.68-2.273 3.689-4.503 0.035-8.053 0.039-16.105 1e-3 -24.157zm-61.939-30.777c11.619-1e-3 23.237-1e-3 34.856 0 1.193 0 1.206 0.015 1.207 1.222 1e-3 4.884-2e-3 9.767 2e-3 14.651 1e-3 1.765 0.543 2.305 2.307 2.306 4.159 3e-3 8.318 0 12.477 3e-3 0.997 1e-3 1.044 0.046 1.046 1.052 6e-3 1.932 5e-3 3.864 0 5.796-3e-3 1.038-0.051 1.085-1.098 1.085-8.479 2e-3 -16.958 1e-3 -25.438 1e-3h-25.357c-1.198 0-1.202-3e-3 -1.202-1.221-1e-3 -7.889-1e-3 -15.778 0-23.667 1e-3 -1.22 0.01-1.228 1.2-1.228zm50.694 74.929c-8.454 1e-3 -16.908 1e-3 -25.362 1e-3 -8.427 0-16.854 1e-3 -25.281 0-1.245 0-1.249-3e-3 -1.249-1.262-1e-3 -4.348-3e-3 -8.696 1e-3 -13.043 1e-3 -1.01 0.051-1.059 1.041-1.059 16.989-2e-3 33.977-2e-3 50.966 0 1.041 0 1.086 0.044 1.087 1.094 3e-3 4.348 3e-3 8.696 1e-3 13.043-1e-3 1.215-0.012 1.226-1.204 1.226z" fill="#fff"/>
   <rect x="668.55" y="828.48" width="3.825" height="2.295" fill="#fff"/>
   <rect x="664.72" y="830.77" width="3.825" height="2.295" fill="#fff"/>
   <rect x="668.55" y="833.07" width="3.825" height="2.295" fill="#fff"/>
   <rect x="664.72" y="835.36" width="3.825" height="2.295" fill="#fff"/>
   <rect x="668.55" y="837.66" width="3.825" height="2.295" fill="#fff"/>
   <rect x="664.72" y="839.95" width="3.825" height="2.295" fill="#fff"/>
   <rect x="668.55" y="842.25" width="3.825" height="2.295" fill="#fff"/>
   <rect x="664.72" y="844.54" width="3.825" height="2.295" fill="#fff"/>
   <rect x="668.55" y="846.84" width="3.825" height="2.295" fill="#fff"/>
   <rect x="664.72" y="849.13" width="3.825" height="2.295" fill="#fff"/>
   <rect x="668.55" y="851.43" width="3.825" height="2.295" fill="#fff"/>
   <rect x="664.72" y="853.72" width="3.825" height="2.295" fill="#fff"/>
   <path d="m364.23 859.49c-0.013-2.665-2.087-4.618-4.766-4.659-2.011-0.031-1.81 0.261-1.815-1.887-6e-3 -2.389-0.015-4.778 6e-3 -7.166 7e-3 -0.824-0.243-1.505-0.787-2.125-5.098-5.81-10.184-11.63-15.281-17.441-0.262-0.299-0.599-0.532-0.901-0.796h-40.583c-1.729 0.639-2.482 1.889-2.478 3.72 0.021 8.159 9e-3 16.318 8e-3 24.478 0 1.21-7e-3 1.281-1.197 1.201-3.258-0.221-5.477 2.147-5.436 5.426 0.096 7.568 0.028 15.137 0.031 22.706 1e-3 3.44 1.887 5.32 5.333 5.331 1.267 4e-3 1.268 4e-3 1.268 1.306 1e-3 4.831-2e-3 9.662 2e-3 14.493 2e-3 2.595 1.262 3.855 3.85 3.855 17.446 1e-3 34.891 1e-3 52.337 0 2.543 0 3.822-1.268 3.824-3.799 5e-3 -4.912 1e-3 -9.823 3e-3 -14.735 0-1.115 4e-3 -1.112 1.131-1.121 0.589-5e-3 1.177 0.017 1.761-0.127 2.169-0.535 3.68-2.273 3.689-4.503 0.034-8.053 0.039-16.105 1e-3 -24.157zm-61.939-30.777c11.619-1e-3 23.237-1e-3 34.856 0 1.192 0 1.206 0.015 1.207 1.222 1e-3 4.884-1e-3 9.767 2e-3 14.651 1e-3 1.765 0.543 2.305 2.307 2.306 4.159 3e-3 8.318 0 12.477 3e-3 0.997 1e-3 1.044 0.046 1.046 1.052 6e-3 1.932 5e-3 3.864 0 5.796-3e-3 1.038-0.051 1.085-1.098 1.085-8.479 2e-3 -16.958 1e-3 -25.438 1e-3h-25.357c-1.198 0-1.202-3e-3 -1.202-1.221-1e-3 -7.889-1e-3 -15.778 0-23.667 1e-3 -1.22 0.01-1.228 1.2-1.228zm50.693 74.929c-8.454 1e-3 -16.908 1e-3 -25.362 1e-3 -8.427 0-16.854 1e-3 -25.281 0-1.245 0-1.249-3e-3 -1.249-1.262-1e-3 -4.348-3e-3 -8.696 1e-3 -13.043 1e-3 -1.01 0.051-1.059 1.041-1.059 16.989-2e-3 33.977-2e-3 50.966 0 1.041 0 1.086 0.044 1.087 1.094 3e-3 4.348 3e-3 8.696 1e-3 13.043-1e-3 1.215-0.012 1.226-1.204 1.226z" fill="#fff"/>
   <g fill="#fff">
    <path d="m303.58 879.89v-17.193h6.051c0.816 0 1.581 0.132 2.293 0.396s1.333 0.636 1.861 1.117c0.527 0.48 0.944 1.053 1.248 1.717 0.304 0.665 0.456 1.397 0.456 2.198 0 0.816-0.152 1.557-0.456 2.221s-0.721 1.236-1.248 1.717c-0.529 0.48-1.149 0.852-1.861 1.117-0.713 0.264-1.477 0.396-2.293 0.396h-2.809v6.315h-3.242zm6.099-9.388c0.848 0 1.489-0.241 1.921-0.721s0.648-1.032 0.648-1.656c0-0.304-0.052-0.601-0.156-0.889-0.105-0.288-0.264-0.54-0.48-0.756-0.216-0.217-0.484-0.388-0.805-0.516-0.32-0.129-0.696-0.193-1.128-0.193h-2.857v4.731z"/>
    <path d="m317.8 862.7h3.77l6.916 11.526h0.191l-0.191-3.314v-8.212h3.217v17.193h-3.409l-7.3-12.174h-0.191l0.191 3.314v8.86h-3.193v-17.193z"/>
    <path d="m343.08 870.45h8.429c0.048 0.193 0.087 0.425 0.12 0.697 0.031 0.272 0.048 0.544 0.048 0.816 0 1.104-0.167 2.145-0.504 3.121-0.336 0.977-0.865 1.849-1.585 2.618-0.768 0.817-1.69 1.449-2.761 1.897-1.073 0.448-2.298 0.672-3.674 0.672-1.249 0-2.426-0.224-3.53-0.672-1.104-0.447-2.065-1.072-2.881-1.873-0.816-0.8-1.465-1.749-1.945-2.845-0.48-1.097-0.72-2.293-0.72-3.59 0-1.296 0.24-2.493 0.72-3.589s1.129-2.045 1.945-2.845 1.777-1.425 2.881-1.873 2.281-0.672 3.53-0.672c1.392 0 2.637 0.24 3.734 0.72s2.036 1.144 2.821 1.993l-2.232 2.185c-0.562-0.592-1.185-1.044-1.874-1.357s-1.513-0.468-2.473-0.468c-0.786 0-1.53 0.14-2.234 0.421-0.705 0.28-1.321 0.676-1.85 1.188-0.527 0.512-0.949 1.133-1.259 1.861-0.312 0.728-0.469 1.541-0.469 2.437 0 0.897 0.157 1.709 0.469 2.438 0.311 0.728 0.735 1.349 1.271 1.861s1.156 0.909 1.862 1.188c0.704 0.281 1.457 0.421 2.258 0.421 0.911 0 1.684-0.132 2.317-0.396 0.632-0.264 1.171-0.604 1.62-1.021 0.321-0.288 0.598-0.652 0.829-1.092s0.412-0.932 0.541-1.477h-5.404z"/>
   </g>
   <path d="m443.44 859.49c-0.013-2.665-2.087-4.618-4.766-4.659-2.011-0.031-1.81 0.261-1.815-1.887-6e-3 -2.389-0.015-4.778 6e-3 -7.166 7e-3 -0.824-0.243-1.505-0.787-2.125-5.098-5.81-10.184-11.63-15.281-17.441-0.262-0.299-0.599-0.532-0.901-0.796h-40.583c-1.729 0.639-2.482 1.889-2.478 3.72 0.021 8.159 9e-3 16.318 8e-3 24.478 0 1.21-7e-3 1.281-1.197 1.201-3.258-0.221-5.477 2.147-5.436 5.426 0.096 7.568 0.028 15.137 0.031 22.706 1e-3 3.44 1.887 5.32 5.333 5.331 1.267 4e-3 1.268 4e-3 1.268 1.306 1e-3 4.831-2e-3 9.662 2e-3 14.493 2e-3 2.595 1.262 3.855 3.85 3.855 17.446 1e-3 34.891 1e-3 52.337 0 2.543 0 3.822-1.268 3.824-3.799 5e-3 -4.912 1e-3 -9.823 3e-3 -14.735 0-1.115 4e-3 -1.112 1.131-1.121 0.589-5e-3 1.177 0.017 1.761-0.127 2.169-0.535 3.68-2.273 3.689-4.503 0.034-8.053 0.039-16.105 1e-3 -24.157zm-61.939-30.777c11.619-1e-3 23.237-1e-3 34.856 0 1.192 0 1.206 0.015 1.207 1.222 1e-3 4.884-1e-3 9.767 2e-3 14.651 1e-3 1.765 0.543 2.305 2.307 2.306 4.159 3e-3 8.318 0 12.477 3e-3 0.997 1e-3 1.044 0.046 1.046 1.052 6e-3 1.932 5e-3 3.864 0 5.796-3e-3 1.038-0.051 1.085-1.098 1.085-8.479 2e-3 -16.958 1e-3 -25.438 1e-3h-25.357c-1.198 0-1.202-3e-3 -1.202-1.221-1e-3 -7.889-1e-3 -15.778 0-23.667 1e-3 -1.22 0.01-1.228 1.2-1.228zm50.694 74.929c-8.454 1e-3 -16.908 1e-3 -25.362 1e-3 -8.427 0-16.854 1e-3 -25.281 0-1.245 0-1.249-3e-3 -1.249-1.262-1e-3 -4.348-2e-3 -8.696 1e-3 -13.043 1e-3 -1.01 0.051-1.059 1.041-1.059 16.989-2e-3 33.977-2e-3 50.966 0 1.041 0 1.086 0.044 1.087 1.094 3e-3 4.348 3e-3 8.696 1e-3 13.043-2e-3 1.215-0.012 1.226-1.204 1.226z" fill="#fff"/>
   <g fill="#fff">
    <path d="m402.27 862.7h3.698l6.46 17.193h-3.578l-1.416-4.106h-6.628l-1.417 4.106h-3.578zm4.107 10.109-1.537-4.298-0.625-2.089h-0.192l-0.625 2.089-1.537 4.298z"/>
    <path d="m415.82 866.54c-0.273 0-0.533-0.052-0.781-0.156s-0.465-0.248-0.648-0.432c-0.184-0.184-0.328-0.396-0.432-0.636-0.105-0.241-0.156-0.504-0.156-0.793s0.052-0.552 0.156-0.793c0.104-0.24 0.248-0.452 0.432-0.636s0.4-0.328 0.648-0.432 0.508-0.156 0.781-0.156c0.56 0 1.041 0.196 1.441 0.588 0.4 0.393 0.601 0.869 0.601 1.429s-0.201 1.037-0.601 1.428c-0.4 0.393-0.881 0.589-1.441 0.589zm-1.56 13.35v-11.766h3.145v11.766z"/>
   </g>
   <path d="m524.04 859.49c-0.013-2.665-2.087-4.618-4.766-4.659-2.011-0.031-1.81 0.261-1.815-1.887-6e-3 -2.389-0.015-4.778 6e-3 -7.166 7e-3 -0.824-0.243-1.505-0.787-2.125-5.098-5.81-10.184-11.63-15.281-17.441-0.262-0.299-0.599-0.532-0.901-0.796h-40.583c-1.729 0.639-2.482 1.889-2.478 3.72 0.021 8.159 9e-3 16.318 8e-3 24.478 0 1.21-7e-3 1.281-1.197 1.201-3.258-0.221-5.477 2.147-5.436 5.426 0.096 7.568 0.028 15.137 0.031 22.706 1e-3 3.44 1.887 5.32 5.333 5.331 1.267 4e-3 1.268 4e-3 1.268 1.306 1e-3 4.831-2e-3 9.662 2e-3 14.493 2e-3 2.595 1.262 3.855 3.85 3.855 17.446 1e-3 34.891 1e-3 52.337 0 2.543 0 3.822-1.268 3.824-3.799 5e-3 -4.912 1e-3 -9.823 3e-3 -14.735 0-1.115 4e-3 -1.112 1.131-1.121 0.589-5e-3 1.177 0.017 1.761-0.127 2.169-0.535 3.68-2.273 3.689-4.503 0.034-8.053 0.039-16.105 1e-3 -24.157zm-61.939-30.777c11.619-1e-3 23.237-1e-3 34.856 0 1.192 0 1.206 0.015 1.207 1.222 1e-3 4.884-1e-3 9.767 2e-3 14.651 1e-3 1.765 0.543 2.305 2.307 2.306 4.159 3e-3 8.318 0 12.477 3e-3 0.997 1e-3 1.044 0.046 1.046 1.052 6e-3 1.932 5e-3 3.864 0 5.796-3e-3 1.038-0.051 1.085-1.098 1.085-8.479 2e-3 -16.958 1e-3 -25.438 1e-3h-25.357c-1.198 0-1.202-3e-3 -1.202-1.221-1e-3 -7.889-1e-3 -15.778 0-23.667 1e-3 -1.22 0.01-1.228 1.2-1.228zm50.694 74.929c-8.454 1e-3 -16.908 1e-3 -25.362 1e-3 -8.427 0-16.854 1e-3 -25.281 0-1.245 0-1.249-3e-3 -1.249-1.262-1e-3 -4.348-2e-3 -8.696 1e-3 -13.043 1e-3 -1.01 0.051-1.059 1.041-1.059 16.989-2e-3 33.977-2e-3 50.966 0 1.041 0 1.086 0.044 1.087 1.094 3e-3 4.348 3e-3 8.696 1e-3 13.043-2e-3 1.215-0.013 1.226-1.204 1.226z" fill="#fff"/>
   <g fill="#fff">
    <path d="m470.31 880.28c-0.737 0-1.441-0.104-2.113-0.312s-1.289-0.52-1.849-0.936-1.048-0.925-1.464-1.525c-0.417-0.601-0.745-1.301-0.985-2.101l3.049-1.2c0.224 0.864 0.616 1.581 1.177 2.149s1.297 0.852 2.209 0.852c0.336 0 0.66-0.044 0.973-0.132 0.312-0.087 0.592-0.216 0.84-0.384s0.444-0.38 0.589-0.636c0.144-0.256 0.216-0.552 0.216-0.888 0-0.32-0.056-0.608-0.168-0.865-0.112-0.255-0.3-0.495-0.564-0.72-0.264-0.224-0.609-0.44-1.033-0.648s-0.948-0.424-1.572-0.648l-1.056-0.384c-0.465-0.16-0.933-0.376-1.405-0.648s-0.9-0.6-1.284-0.985c-0.385-0.384-0.701-0.836-0.949-1.357-0.249-0.52-0.372-1.108-0.372-1.765 0-0.672 0.132-1.301 0.396-1.885s0.64-1.096 1.129-1.537c0.488-0.44 1.072-0.784 1.753-1.032s1.437-0.372 2.269-0.372c0.864 0 1.612 0.116 2.245 0.348s1.168 0.528 1.609 0.888c0.44 0.36 0.796 0.757 1.068 1.188 0.272 0.433 0.472 0.84 0.601 1.225l-2.857 1.2c-0.161-0.48-0.453-0.913-0.876-1.297-0.425-0.384-1.005-0.576-1.741-0.576-0.704 0-1.289 0.164-1.753 0.492-0.465 0.329-0.697 0.757-0.697 1.285 0 0.512 0.224 0.949 0.672 1.309s1.161 0.708 2.137 1.044l1.081 0.36c0.688 0.241 1.316 0.517 1.885 0.828 0.568 0.312 1.056 0.684 1.465 1.117 0.408 0.433 0.72 0.925 0.936 1.477 0.217 0.552 0.324 1.189 0.324 1.909 0 0.897-0.18 1.669-0.54 2.317s-0.82 1.181-1.38 1.597c-0.561 0.416-1.193 0.728-1.897 0.936-0.708 0.209-1.396 0.312-2.068 0.312z"/>
    <path d="m477.18 862.7h3.506l3.554 10.349 0.625 2.209h0.192l0.672-2.209 3.698-10.349h3.506l-6.268 17.193h-3.409z"/>
    <path d="m502.39 870.45h8.428c0.048 0.193 0.088 0.425 0.12 0.697 0.033 0.272 0.049 0.544 0.049 0.816 0 1.104-0.169 2.145-0.505 3.121-0.336 0.977-0.864 1.849-1.585 2.618-0.768 0.817-1.688 1.449-2.761 1.897s-2.298 0.672-3.674 0.672c-1.249 0-2.425-0.224-3.529-0.672-1.105-0.447-2.066-1.072-2.882-1.873-0.816-0.8-1.465-1.749-1.945-2.845-0.48-1.097-0.72-2.293-0.72-3.59 0-1.296 0.241-2.493 0.72-3.589 0.48-1.097 1.129-2.045 1.945-2.845s1.777-1.425 2.882-1.873c1.104-0.448 2.28-0.672 3.529-0.672 1.392 0 2.637 0.24 3.734 0.72s2.038 1.144 2.822 1.993l-2.234 2.185c-0.56-0.592-1.185-1.044-1.874-1.357-0.687-0.312-1.512-0.468-2.473-0.468-0.784 0-1.528 0.14-2.234 0.421-0.704 0.28-1.321 0.676-1.848 1.188-0.528 0.512-0.949 1.133-1.261 1.861s-0.468 1.541-0.468 2.437c0 0.897 0.156 1.709 0.468 2.438 0.312 0.728 0.737 1.349 1.273 1.861s1.156 0.909 1.86 1.188c0.705 0.281 1.457 0.421 2.258 0.421 0.913 0 1.685-0.132 2.317-0.396s1.173-0.604 1.621-1.021c0.32-0.288 0.596-0.652 0.828-1.092 0.233-0.44 0.412-0.932 0.541-1.477h-5.402z"/>
   </g>
   <path d="m602.98 859.49c-0.013-2.665-2.087-4.618-4.766-4.659-2.011-0.031-1.81 0.261-1.815-1.887-6e-3 -2.389-0.015-4.778 6e-3 -7.166 7e-3 -0.824-0.243-1.505-0.787-2.125-5.098-5.81-10.184-11.63-15.281-17.441-0.262-0.299-0.599-0.532-0.901-0.796h-40.583c-1.729 0.639-2.482 1.889-2.478 3.72 0.021 8.159 9e-3 16.318 8e-3 24.478 0 1.21-7e-3 1.281-1.197 1.201-3.258-0.221-5.477 2.147-5.436 5.426 0.096 7.568 0.028 15.137 0.031 22.706 1e-3 3.44 1.887 5.32 5.333 5.331 1.267 4e-3 1.268 4e-3 1.268 1.306 1e-3 4.831-2e-3 9.662 2e-3 14.493 2e-3 2.595 1.262 3.855 3.85 3.855 17.446 1e-3 34.891 1e-3 52.337 0 2.543 0 3.822-1.268 3.824-3.799 5e-3 -4.912 1e-3 -9.823 3e-3 -14.735 0-1.115 5e-3 -1.112 1.131-1.121 0.589-5e-3 1.178 0.017 1.761-0.127 2.169-0.535 3.68-2.273 3.689-4.503 0.035-8.053 0.04-16.105 1e-3 -24.157zm-61.939-30.777c11.619-1e-3 23.237-1e-3 34.856 0 1.193 0 1.206 0.015 1.207 1.222 1e-3 4.884-2e-3 9.767 2e-3 14.651 1e-3 1.765 0.543 2.305 2.307 2.306 4.159 3e-3 8.318 0 12.477 3e-3 0.997 1e-3 1.044 0.046 1.046 1.052 6e-3 1.932 5e-3 3.864 0 5.796-3e-3 1.038-0.051 1.085-1.098 1.085-8.479 2e-3 -16.958 1e-3 -25.438 1e-3h-25.357c-1.198 0-1.202-3e-3 -1.202-1.221-1e-3 -7.889-1e-3 -15.778 0-23.667 1e-3 -1.22 0.01-1.228 1.2-1.228zm50.694 74.929c-8.454 1e-3 -16.908 1e-3 -25.362 1e-3 -8.427 0-16.854 1e-3 -25.281 0-1.245 0-1.249-3e-3 -1.249-1.262-1e-3 -4.348-3e-3 -8.696 1e-3 -13.043 1e-3 -1.01 0.051-1.059 1.041-1.059 16.989-2e-3 33.977-2e-3 50.966 0 1.041 0 1.086 0.044 1.087 1.094 3e-3 4.348 3e-3 8.696 1e-3 13.043-1e-3 1.215-0.012 1.226-1.204 1.226z" fill="#fff"/>
   <g fill="#fff">
    <path d="m550 865.77v3.986h6.891v3.074h-6.891v3.986h7.659v3.073h-10.901v-17.193h10.901v3.073h-7.659z"/>
    <path d="m560.64 879.89v-17.193h6.051c0.816 0 1.581 0.132 2.293 0.396s1.333 0.636 1.861 1.117c0.528 0.48 0.944 1.053 1.249 1.717 0.304 0.665 0.456 1.397 0.456 2.198 0 0.816-0.152 1.557-0.456 2.221-0.305 0.664-0.721 1.236-1.249 1.717-0.528 0.48-1.149 0.852-1.861 1.117-0.713 0.264-1.477 0.396-2.293 0.396h-2.809v6.315h-3.242zm6.1-9.388c0.848 0 1.489-0.241 1.921-0.721s0.648-1.032 0.648-1.656c0-0.304-0.052-0.601-0.156-0.889-0.105-0.288-0.264-0.54-0.48-0.756-0.216-0.217-0.484-0.388-0.805-0.516-0.32-0.129-0.696-0.193-1.128-0.193h-2.857v4.731z"/>
    <path d="m580.11 880.28c-0.737 0-1.441-0.104-2.113-0.312s-1.289-0.52-1.849-0.936-1.049-0.925-1.465-1.525c-0.416-0.601-0.744-1.301-0.985-2.101l3.049-1.2c0.224 0.864 0.616 1.581 1.177 2.149 0.56 0.568 1.296 0.852 2.209 0.852 0.336 0 0.66-0.044 0.973-0.132 0.312-0.087 0.592-0.216 0.84-0.384s0.444-0.38 0.588-0.636 0.217-0.552 0.217-0.888c0-0.32-0.057-0.608-0.168-0.865-0.112-0.255-0.3-0.495-0.565-0.72-0.264-0.224-0.608-0.44-1.032-0.648s-0.949-0.424-1.573-0.648l-1.056-0.384c-0.465-0.16-0.932-0.376-1.404-0.648-0.473-0.272-0.901-0.6-1.285-0.985-0.384-0.384-0.701-0.836-0.949-1.357-0.248-0.52-0.372-1.108-0.372-1.765 0-0.672 0.132-1.301 0.396-1.885s0.64-1.096 1.129-1.537c0.489-0.44 1.073-0.784 1.753-1.032s1.437-0.372 2.269-0.372c0.865 0 1.613 0.116 2.246 0.348 0.632 0.232 1.168 0.528 1.609 0.888 0.44 0.36 0.796 0.757 1.068 1.188 0.272 0.433 0.472 0.84 0.601 1.225l-2.857 1.2c-0.161-0.48-0.453-0.913-0.877-1.297s-1.005-0.576-1.741-0.576c-0.705 0-1.289 0.164-1.753 0.492-0.465 0.329-0.696 0.757-0.696 1.285 0 0.512 0.224 0.949 0.672 1.309s1.16 0.708 2.137 1.044l1.08 0.36c0.689 0.241 1.317 0.517 1.885 0.828 0.568 0.312 1.056 0.684 1.465 1.117 0.408 0.433 0.72 0.925 0.936 1.477s0.324 1.189 0.324 1.909c0 0.897-0.18 1.669-0.54 2.317s-0.821 1.181-1.38 1.597c-0.561 0.416-1.193 0.728-1.897 0.936-0.705 0.209-1.393 0.312-2.066 0.312z"/>
   </g>
   <g fill="#fff">
    <path d="m655.43 876.62 8.716-10.854h-8.332v-3.073h12.103v3.266l-8.621 10.854h8.716v3.073h-12.582z"/>
    <path d="m670.7 862.7h3.242v17.193h-3.242z"/>
    <path d="m677.4 879.89v-17.193h6.051c0.817 0 1.581 0.132 2.293 0.396s1.333 0.636 1.861 1.117 0.944 1.053 1.249 1.717c0.304 0.665 0.456 1.397 0.456 2.198 0 0.816-0.152 1.557-0.456 2.221-0.305 0.664-0.721 1.236-1.249 1.717s-1.149 0.852-1.861 1.117c-0.713 0.264-1.477 0.396-2.293 0.396h-2.809v6.315h-3.242zm6.099-9.388c0.848 0 1.489-0.241 1.921-0.721 0.433-0.48 0.648-1.032 0.648-1.656 0-0.304-0.052-0.601-0.156-0.889-0.105-0.288-0.264-0.54-0.48-0.756-0.216-0.217-0.484-0.388-0.805-0.516-0.32-0.129-0.696-0.193-1.128-0.193h-2.857v4.731z"/>
   </g>
  </g>
  <g opacity=".61">
   <path d="m609.14 863.78h19.739v4.881h-19.739zm0 8.416h19.739v4.884h-19.739z" fill="#fff"/>
  </g>
  <g fill="#fff" opacity=".61">
   <path d="m297 963.08h3.498c2.75 0 4.603 1.768 4.603 4.297s-1.854 4.296-4.603 4.296h-3.498zm3.449 7.807c2.283 0 3.756-1.448 3.756-3.51s-1.473-3.511-3.756-3.511h-2.541v7.021z"/>
   <path d="m315.25 967.37c0-2.504 1.915-4.37 4.517-4.37 2.577 0 4.505 1.853 4.505 4.37 0 2.516-1.927 4.369-4.505 4.369-2.602 0-4.517-1.865-4.517-4.369zm8.114 0c0-2.05-1.534-3.56-3.596-3.56-2.075 0-3.621 1.51-3.621 3.56 0 2.049 1.546 3.559 3.621 3.559 2.062 0 3.596-1.51 3.596-3.559z"/>
   <path d="m346.72 963.08-2.897 8.593h-0.957l-2.516-7.328-2.529 7.328h-0.945l-2.897-8.593h0.933l2.479 7.389 2.566-7.389h0.847l2.529 7.426 2.516-7.426z"/>
   <path d="m364.44 963.08v8.593h-0.749l-5.524-6.972v6.972h-0.908v-8.593h0.749l5.536 6.973v-6.973z"/>
   <path d="m376.11 963.08h0.908v7.807h4.812v0.786h-5.72z"/>
   <path d="m391.28 967.37c0-2.504 1.915-4.37 4.517-4.37 2.577 0 4.505 1.853 4.505 4.37 0 2.516-1.927 4.369-4.505 4.369-2.602 0-4.517-1.865-4.517-4.369zm8.113 0c0-2.05-1.534-3.56-3.596-3.56-2.075 0-3.621 1.51-3.621 3.56 0 2.049 1.546 3.559 3.621 3.559 2.062 0 3.596-1.51 3.596-3.559z"/>
   <path d="m416.48 969.37h-4.787l-1.031 2.295h-0.945l3.928-8.593h0.896l3.928 8.593h-0.957zm-0.331-0.737-2.062-4.615-2.062 4.615z"/>
   <path d="m428.76 963.08h3.498c2.75 0 4.603 1.768 4.603 4.297s-1.854 4.296-4.603 4.296h-3.498zm3.449 7.807c2.283 0 3.756-1.448 3.756-3.51s-1.473-3.511-3.756-3.511h-2.541v7.021z"/>
   <path d="m465.26 969.37h-4.787l-1.031 2.295h-0.945l3.928-8.593h0.896l3.928 8.593h-0.957zm-0.331-0.737-2.062-4.615-2.062 4.615z"/>
   <path d="m477.54 963.08h0.908v7.807h4.812v0.786h-5.72z"/>
   <path d="m493.65 963.08h0.908v7.807h4.812v0.786h-5.72z"/>
   <path d="m522.75 963.86v3.376h4.443v0.786h-4.443v3.646h-0.909v-8.593h5.891v0.786h-4.982z"/>
   <path d="m538.48 963.08h0.909v8.593h-0.909z"/>
   <path d="m551.07 963.08h0.909v7.807h4.811v0.786h-5.72z"/>
   <path d="m573.25 970.88v0.786h-6.076v-8.593h5.891v0.786h-4.983v3.056h4.443v0.774h-4.443v3.191z"/>
   <path d="m597.26 963.86v3.376h4.443v0.786h-4.443v3.646h-0.909v-8.593h5.891v0.786h-4.982z"/>
   <path d="m612.12 967.37c0-2.504 1.915-4.37 4.517-4.37 2.577 0 4.505 1.853 4.505 4.37 0 2.516-1.927 4.369-4.505 4.369-2.602 0-4.517-1.865-4.517-4.369zm8.113 0c0-2.05-1.534-3.56-3.596-3.56-2.075 0-3.622 1.51-3.622 3.56 0 2.049 1.547 3.559 3.622 3.559 2.062 0 3.596-1.51 3.596-3.559z"/>
   <path d="m637.92 971.67-1.963-2.762c-0.222 0.024-0.442 0.037-0.688 0.037h-2.307v2.725h-0.909v-8.593h3.216c2.185 0 3.511 1.105 3.511 2.946 0 1.351-0.712 2.295-1.964 2.7l2.099 2.946h-0.995zm-0.048-5.647c0-1.375-0.909-2.161-2.627-2.161h-2.283v4.309h2.283c1.718 0 2.627-0.797 2.627-2.148z"/>
   <path d="m658.72 963.08v8.593h-0.871v-6.874l-3.376 5.782h-0.429l-3.376-5.745v6.837h-0.872v-8.593h0.749l3.732 6.371 3.695-6.371z"/>
   <path d="m675.79 969.37h-4.788l-1.031 2.295h-0.946l3.928-8.593h0.896l3.928 8.593h-0.957zm-0.332-0.737-2.062-4.615-2.062 4.615z"/>
   <path d="m689.31 963.86h-3.02v-0.786h6.948v0.786h-3.02v7.807h-0.908z"/>
   <path d="m702.6 970.63 0.356-0.7c0.614 0.601 1.706 1.043 2.835 1.043 1.608 0 2.308-0.675 2.308-1.522 0-2.357-5.29-0.908-5.29-4.087 0-1.265 0.982-2.357 3.167-2.357 0.97 0 1.976 0.282 2.664 0.761l-0.307 0.724c-0.737-0.479-1.596-0.712-2.357-0.712-1.571 0-2.271 0.7-2.271 1.559 0 2.357 5.29 0.933 5.29 4.063 0 1.265-1.006 2.344-3.204 2.344-1.288 0-2.553-0.454-3.191-1.116z"/>
  </g>
 </g>
 <g transform="translate(-237 -400.82)">
  <g transform="translate(-128,-334)">
   <g id="MathWallet_Logo_Horizontal" transform="translate(128,334)">
    <path id="Combined-Shape" d="m333.32 463.63c-2.446-2.446-2.446-6.326 0-8.771 2.446-2.446 6.326-2.446 8.771 0 2.446 2.446 2.446 6.326 0 8.771-2.445 2.446-6.325 2.446-8.771 0zm-20.747 20.832c-1.771-1.771-1.771-4.723 0-6.579 1.771-1.771 4.723-1.771 6.579 0 1.771 1.771 1.771 4.723 0 6.579-1.856 1.771-4.808 1.771-6.579 0zm32.808-10.964c-1.771-1.771-1.771-4.723 0-6.579 1.771-1.771 4.723-1.771 6.579 0 1.771 1.771 1.771 4.723 0 6.579-1.856 1.855-4.808 1.855-6.579 0zm-10.964 10.964c-1.771-1.771-1.771-4.723 0-6.579 1.771-1.771 4.723-1.771 6.579 0 1.771 1.771 1.771 4.723 0 6.579-1.856 1.771-4.724 1.771-6.579 0zm23.025-1.096c-1.181-1.181-1.181-3.205 0-4.386s3.205-1.181 4.386 0 1.181 3.205 0 4.386c-1.266 1.181-3.206 1.181-4.386 0zm-10.965 10.964c-1.181-1.181-1.181-3.205 0-4.386s3.205-1.181 4.386 0 1.181 3.205 0 4.386c-1.265 1.181-3.205 1.181-4.386 0zm-24.121-19.736c-2.446-2.446-2.446-6.326 0-8.771 2.446-2.446 6.326-2.446 8.771 0 2.446 2.446 2.446 6.326 0 8.771-2.361 2.446-6.325 2.446-8.771 0zm0-21.844c-2.446-2.446-2.446-6.326 0-8.771 2.446-2.446 6.326-2.446 8.771 0 2.446 2.446 2.446 6.326 0 8.771-2.361 2.362-6.325 2.362-8.771 0zm-10.88 10.88c-2.446-2.446-2.446-6.326 0-8.771 2.446-2.446 6.326-2.446 8.771 0 2.446 2.446 2.446 6.326 0 8.771-2.445 2.446-6.409 2.446-8.771 0zm-22.013 0c-2.446-2.446-2.446-6.326 0-8.771 2.446-2.446 6.326-2.446 8.771 0 2.446 2.446 2.446 6.326 0 8.771-2.445 2.446-6.325 2.446-8.771 0zm-20.832 20.832c-1.771-1.771-1.771-4.723 0-6.579 1.771-1.771 4.723-1.771 6.579 0 1.771 1.771 1.771 4.723 0 6.579-1.771 1.771-4.723 1.771-6.579 0zm32.893-10.964c-1.771-1.771-1.771-4.723 0-6.579 1.771-1.771 4.723-1.771 6.579 0 1.771 1.771 1.771 4.723 0 6.579-1.856 1.855-4.808 1.855-6.579 0zm-10.964 10.964c-1.771-1.771-1.771-4.723 0-6.579 1.771-1.771 4.723-1.771 6.579 0 1.771 1.771 1.771 4.723 0 6.579-1.856 1.771-4.808 1.771-6.579 0zm-42.676-1.096c-1.181-1.181-1.181-3.205 0-4.386s3.205-1.181 4.386 0 1.181 3.205 0 4.386c-1.266 1.181-3.206 1.181-4.386 0zm10.964 10.964c-1.181-1.181-1.181-3.205 0-4.386s3.205-1.181 4.386 0 1.181 3.205 0 4.386c-1.266 1.181-3.205 1.181-4.386 0zm43.772 0c-1.181-1.181-1.181-3.205 0-4.386s3.205-1.181 4.386 0 1.181 3.205 0 4.386c-1.265 1.181-3.205 1.181-4.386 0zm-44.869-20.832c-1.771-1.771-1.771-4.723 0-6.579 1.771-1.771 4.723-1.771 6.579 0 1.771 1.771 1.771 4.723 0 6.579-1.856 1.855-4.807 1.855-6.579 0zm20.748 1.096c-2.446-2.446-2.446-6.326 0-8.771 2.446-2.446 6.326-2.446 8.771 0s2.446 6.326 0 8.771-6.325 2.446-8.771 0zm0-21.844c-2.446-2.446-2.446-6.326 0-8.771 2.446-2.446 6.326-2.446 8.771 0s2.446 6.326 0 8.771c-2.445 2.362-6.325 2.362-8.771 0zm-10.964 10.88c-2.446-2.446-2.446-6.326 0-8.771 2.446-2.446 6.326-2.446 8.771 0 2.446 2.446 2.446 6.326 0 8.771-2.361 2.446-6.325 2.446-8.771 0z"/>
   </g>
  </g>
 </g>
</svg>
