<svg width="110" height="110" version="1.0" viewBox="0 0 110 110" xmlns="http://www.w3.org/2000/svg">
 <style type="text/css">.st0{fill:url(#SVGID_1_);}
	.st1{fill-rule:evenodd;clip-rule:evenodd;fill:url(#SVGID_00000161597173617360504640000012432366591255278478_);}
	.st2{fill-rule:evenodd;clip-rule:evenodd;fill:url(#SVGID_00000021803777515098205300000017382971856690286485_);}
	.st3{fill:url(#SVGID_00000031192219548086493050000012287181694732331425_);}</style>
 <linearGradient id="SVGID_1_" x1="82.683" x2="148.23" y1="79.844" y2="61.256" gradientTransform="matrix(1 0 0 -1 -34.7 137.04)" gradientUnits="userSpaceOnUse">
  <stop stop-color="#8797FF" offset="0"/>
  <stop stop-color="#AAA8FF" offset="1"/>
 </linearGradient>
 <linearGradient id="SVGID_00000044169200580553624300000013345904656810082952_" x1="134.76" x2="87.464" y1="78.377" y2="125.79" gradientTransform="matrix(1 0 0 -1 -34.7 137.04)" gradientUnits="userSpaceOnUse">
  <stop stop-color="#3B22A0" offset="0"/>
  <stop stop-color="#5156D8" stop-opacity="0" offset="1"/>
 </linearGradient>
 <linearGradient id="SVGID_00000011711276424470013000000013596413199536411566_" x1="112.6" x2="67.173" y1="54.086" y2="80.206" gradientTransform="matrix(1 0 0 -1 -34.7 137.04)" gradientUnits="userSpaceOnUse">
  <stop stop-color="#3B1E8F" offset="0"/>
  <stop stop-color="#6A6FFB" stop-opacity="0" offset="1"/>
 </linearGradient>
 <linearGradient id="SVGID_00000132774675072191537280000013935395272828303517_" x1="79.516" x2="110.22" y1="74.453" y2="35.435" gradientTransform="matrix(1 0 0 -1 -34.7 137.04)" gradientUnits="userSpaceOnUse">
  <stop stop-color="#8898FF" offset="0"/>
  <stop stop-color="#5F47F1" offset=".9839"/>
 </linearGradient>
 <g transform="translate(-12.339 -4.0214)">
  <path class="st0" d="m114.2 64.936c3.7-8.3-14.7-31.6-32.3-41.2-11.1-7.5-22.6-6.5-25-3.2-5.1 7.2 17 13.4 31.8 20.5-3.2 1.4-6.2 3.9-7.9 7-5.5-6-17.6-11.2-31.8-7-9.6 2.8-17.5 9.5-20.6 19.5-0.7-0.3-1.6-0.5-2.4-0.5-3.3 0-6 2.7-6 6s2.7 6 6 6c0.6 0 2.5-0.4 2.5-0.4l30.8 0.2c-12.3 19.6-22.1 22.4-22.1 25.8 0 3.4 9.3 2.5 12.8 1.2 16.8-6 34.8-24.9 37.9-30.3 13 1.7 23.9 1.8 26.3-3.6z" fill="url(#SVGID_1_)"/>
  <path d="m88.8 41.036c0.7-0.3 0.6-1.3 0.4-2.1-0.4-1.8-7.9-9.2-14.9-12.5-9.6-4.5-16.6-4.3-17.6-2.2 1.9 4 11 7.7 20.4 11.7 3.9 1.6 8 3.3 11.7 5.1z" clip-rule="evenodd" fill="url(#SVGID_00000044169200580553624300000013345904656810082952_)" fill-rule="evenodd"/>
  <path d="m76.6 81.236c-1.9-0.7-4.1-1.4-6.6-2 2.6-4.7 3.2-11.8 0.7-16.2-3.5-6.2-7.9-9.5-18.2-9.5-5.6 0-20.8 1.9-21.1 14.6 0 1.3 0 2.5 0.1 3.7h27.8c-3.7 5.9-7.2 10.3-10.3 13.6 3.7 0.9 6.7 1.7 9.5 2.5 2.6 0.7 5.1 1.3 7.6 2 3.8-2.8 7.4-5.8 10.5-8.7z" clip-rule="evenodd" fill="url(#SVGID_00000011711276424470013000000013596413199536411566_)" fill-rule="evenodd"/>
  <path d="m28 70.336c1.1 9.6 6.6 13.4 17.8 14.5s17.6 0.4 26.1 1.1c7.1 0.6 13.5 4.3 15.8 3 2.1-1.1 0.9-5.2-1.9-7.8-3.7-3.4-8.8-5.7-17.7-6.6 1.8-4.9 1.3-11.8-1.5-15.5-4-5.4-11.4-7.8-20.8-6.8-9.8 1.2-19.2 6.1-17.8 18.1z" fill="url(#SVGID_00000132774675072191537280000013935395272828303517_)"/>
 </g>
</svg>
